# AST/ASF file generated using VICON BodyLanguage
# -----------------------------------------------
:version 1.10
:name VICON
:units
  mass 1.0
  length 0.45
  angle deg
:documentation
   .ast/.asf automatically generated from VICON data using
   VICON BodyBuilder and BodyLanguage model FoxedUp or BRILLIANT.MOD
:root
   order TX TY TZ RX RY RZ
   axis XYZ
   position 0 0 0  
   orientation 0 0 0 
:bonedata
  begin
     id 1 
     name lhipjoint
     direction 0.567725 -0.736092 0.368589 
     length 2.42353 
     axis 0 0 0  XYZ
  end
  begin
     id 2 
     name lfemur
     direction 0.34202 -0.939693 0  
     length 7.24894  
     axis 0 0 20  XYZ
    dof rx ry rz
    limits (-160.0 20.0)
           (-70.0 70.0)
           (-60.0 70.0)
  end
  begin
     id 3 
     name ltibia
     direction 0.34202 -0.939693 0   
     length 7.6997   
     axis 0 0 20   XYZ
    dof rx
    limits (-10.0 170.0)
  end
  begin
     id 4 
     name lfoot
     direction 0.100767 -0.276854 0.955614   
     length 2.37556   
     axis -90 7.62852e-016 20   XYZ
    dof rx rz
    limits (-45.0 90.0)
           (-70.0 20.0)
  end
  begin
     id 5 
     name ltoes
     direction 1.53592e-011 -4.21894e-011 1   
     length 1.18363   
     axis -90 7.62852e-016 20   XYZ
    dof rx
    limits (-90.0 20.0)
  end
  begin
     id 6 
     name rhipjoint
     direction -0.556459 -0.742938 0.372017   
     length 2.4012  
     axis 0 0 0  XYZ 
  end
  begin
     id 7 
     name rfemur
     direction -0.34202 -0.939693 0   
     length 7.5119   
     axis 0 0 -20   XYZ
    dof rx ry rz
    limits (-160.0 20.0)
           (-70.0 70.0)
           (-70.0 60.0)
  end
  begin
     id 8 
     name rtibia
     direction -0.34202 -0.939693 0   
     length 7.50155   
     axis 0 0 -20   XYZ
    dof rx
    limits (-10.0 170.0)
 end
 begin
     id 9 
     name rfoot
     direction -0.118427 -0.325376 0.938139   
     length 2.32487  
     axis -90 -7.62852e-016 -20   XYZ
    dof rx rz
    limits (-45.0 90.0)
           (-20.0 70.0)
  end
  begin
     id 10 
     name rtoes
     direction -1.53525e-011 -4.21868e-011 1   
     length 1.15233   
     axis -90 -7.62852e-016 -20   XYZ
    dof rx
    limits (-90.0 20.0)
  end
  begin
     id 11 
     name lowerback
     direction 0.0287568 0.999577 -0.00434502   
     length 2.15243   
     axis 0 0 0   XYZ
    dof rx ry rz
    limits (-20.0 45.0)
           (-30.0 30.0)
           (-30.0 30.0)
  end
  begin
     id 12 
     name upperback
     direction 0.0294009 0.99956 0.00404628   
     length 2.15427   
     axis 0 0 0   XYZ
    dof rx ry rz
    limits (-20.0 45.0)
           (-30.0 30.0)
           (-30.0 30.0)
  end
  begin
     id 13 
     name thorax
     direction 0.0151014 0.999868 0.0059419   
     length 2.14898   
     axis 0 0 0   XYZ
    dof rx ry rz
    limits (-20.0 45.0)
           (-30.0 30.0)
           (-30.0 30.0)
  end
  begin
     id 14 
     name lowerneck
     direction -0.0249197 0.989906 0.139515   
     length 1.6861   
     axis 0 0 0   XYZ
    dof rx ry rz
    limits (-20.0 45.0)
           (-30.0 30.0)
           (-30.0 30.0)
  end
  begin
     id 15 
     name upperneck
     direction 0.0438463 0.988795 -0.142693   
     length 1.71276   
     axis 0 0 0   XYZ
    dof rx ry rz
    limits (-20.0 45.0)
           (-30.0 30.0)
           (-30.0 30.0)
  end
  begin
     id 16
     name head
     direction 0.0148499 0.997845 -0.0639186  
     length 1.7209  
     axis 0 0 0   XYZ
    dof rx ry rz
    limits (-20.0 45.0)
           (-30.0 30.0)
           (-30.0 30.0)
  end
  begin
     id 17 
     name lclavicle
     direction 0.940298 0.323464 -0.105876  
     length 3.9048  
     axis 0 0 0   XYZ
    dof ry rz
    limits (-20.0 10.0)
           (0.0 20.0)
  end
  begin
     id 18 
     name lhumerus
     direction 1 -4.48954e-011 -4.9675e-028   
     length 4.6851   
     axis 180 -30 -90   XYZ
    dof rx ry rz
    limits (-60.0 90.0)
           (-90.0 90.0)
           (-90.0 90.0)
  end
  begin
     id 19
     name lradius
     direction 1 -4.48992e-011 -1.03359e-026   
     length 3.39626   
     axis 180 -30 -90   XYZ
    dof rx
    limits (-10.0 170.0)
  end
  begin
     id 20
     name lwrist
     direction 1 -4.48906e-011 -1.67336e-026   
     length 1.69813   
     axis 9.90442e-015 90 90   XYZ
    dof ry
    limits (-180.0 0.0)
 end
  begin
     id 21 
     name lhand
     direction 1 -4.49006e-011 -3.34673e-026   
     length 0.486078   
     axis 2.1355e-014 90 90   XYZ
    dof rx rz
    limits (-90.0 90.0)
           (-45.0 45.0)
  end
  begin
     id 22 
     name lfingers
     direction 1 -4.48992e-011 -6.69345e-026   
     length 0.391889   
     axis 4.27099e-014 90 90   XYZ
    dof rx
    limits (0.0 90.0)
  end
  begin
     id 23
     name lthumb
     direction 0.707107 -6.34926e-011 0.707107   
     length 0.562676   
     axis -90 45 2.85299e-015   XYZ
    dof rx rz
    limits (-45.0 45.0)
           (-45.0 45.0)
  end
  begin
     id 24 
     name rclavicle
     direction -0.882459 0.414895 -0.221648   
     length 3.44646  
     axis 0 0 0   XYZ 
    dof ry rz
    limits (-10.0 20.0)
           (-20.0 0.0)
  end
  begin
     id 25 
     name rhumerus
     direction -1 -4.48962e-011 -2.37984e-027  
     length 5.55576   
     axis 180 30 90   XYZ
    dof rx ry rz
    limits (-90.0 60.0)
           (-90.0 90.0)
           (-90.0 90.0)
  end
  begin
     id 26 
     name rradius
     direction -1 -4.48982e-011 -6.86791e-027   
     length 3.32774   
     axis 180 30 90   XYZ
    dof rx
    limits (-10.0 170.0)
  end
  begin
     id 27 
     name rwrist
     direction -1 -4.48961e-011 -1.67336e-026   
     length 1.66387   
     axis 9.90442e-015 -90 -90   XYZ
    dof ry
    limits (-180.0 0.0)
  end
  begin
     id 28
     name rhand
     direction -1 -4.4897e-011 -3.34673e-026   
     length 0.507628   
     axis 2.1355e-014 -90 -90   XYZ
    dof rx rz
    limits (-90.0 90.0)
           (-45.0 45.0)
  end
  begin
     id 29
     name rfingers
     direction -1 -4.48854e-011 -6.69345e-026   
     length 0.409263   
     axis 4.27099e-014 -90 -90   XYZ
    dof rx
    limits (0.0 90.0)
  end
  begin
     id 30
     name rthumb
     direction -0.707107 -6.34913e-011 0.707107   
     length 0.587622   
     axis -90 -45 -2.85299e-015   XYZ
    dof rx rz
    limits (-45.0 45.0)
           (-45.0 45.0)
  end
:hierarchy
  begin
    root lhipjoint rhipjoint lowerback
    lhipjoint lfemur
    lfemur ltibia
    ltibia lfoot
    lfoot ltoes
    rhipjoint rfemur
    rfemur rtibia
    rtibia rfoot
    rfoot rtoes
    lowerback upperback
    upperback thorax
    thorax lowerneck lclavicle rclavicle
    lowerneck upperneck
    upperneck head
    lclavicle lhumerus
    lhumerus lradius
    lradius lwrist
    lwrist lhand lthumb
    lhand lfingers
    rclavicle rhumerus
    rhumerus rradius
    rradius rwrist
    rwrist rhand rthumb
    rhand rfingers
  end

#!OML:ASF E:\motion texture\Top Level 1\Subject 1\Session 1\male.ASF
:FULLY-SPECIFIED
:DEGREES
110
root 28.0461 17.494 6.78796 18.7614 -85.4585 -9.29325
lowerback -0.333613 -0.629845 -1.08186
upperback -1.57843 -0.84737 0.72188
thorax -1.40276 -0.409153 1.35314
lowerneck -18.8291 -2.96458 -6.05437
upperneck 16.2034 -3.62043 5.96043
head 8.35721 -1.4882 2.54159
rclavicle -1.82602e-014 -3.88873e-015
rhumerus -12.2491 21.3191 -89.7593
rradius 78.3359
rwrist 21.2819
rhand -23.3086 -17.8245
rfingers 7.12502
rthumb 3.14504 -47.781
lclavicle -1.82602e-014 -3.88873e-015
lhumerus -14.845 -22.021 100.099
lradius 55.0242
lwrist -6.7398
lhand -17.4419 24.338
lfingers 7.12502
lthumb 8.80897 54.1342
rfemur -37.198 -6.10329 18.9299
rtibia 24.1555
rfoot -3.58318 -18.2316
rtoes 5.90312
lfemur -1.42314 -2.07734 -20.741
ltibia 13.8564
lfoot -15.2535 2.25206
ltoes -5.73281
111
root 27.895 17.4838 6.78608 18.5535 -85.4247 -9.07415
lowerback -0.333812 -0.649762 -1.05367
upperback -1.57992 -0.87339 0.773591
thorax -1.40299 -0.422242 1.39055
lowerneck -18.8716 -2.9682 -6.04553
upperneck 16.1958 -3.61403 5.91022
head 8.36049 -1.48882 2.52365
rclavicle -1.27331e-014 -2.98177e-015
rhumerus -12.3204 21.3651 -89.6365
rradius 78.6469
rwrist 21.275
rhand -23.0627 -17.6908
rfingers 7.12502
rthumb 3.38259 -47.6437
lclavicle -1.27331e-014 -2.98177e-015
lhumerus -15.2625 -21.9288 100.271
lradius 55.1228
lwrist -6.84262
lhand -17.3918 24.2996
lfingers 7.12502
lthumb 8.85732 54.0937
rfemur -37.2015 -5.85431 18.8605
rtibia 23.333
rfoot -3.44485 -18.2525
rtoes 5.88045
lfemur -1.07387 -2.13146 -20.7124
ltibia 14.167
lfoot -15.3507 2.19866
ltoes -6.58231
112
root 27.7423 17.4744 6.78344 18.4616 -85.3918 -8.97463
lowerback -0.333044 -0.668913 -1.01852
upperback -1.57681 -0.898293 0.830736
thorax -1.39907 -0.434876 1.4296
lowerneck -18.9247 -2.97152 -6.03698
upperneck 16.1909 -3.60579 5.8563
head 8.3663 -1.48879 2.5047
rclavicle 1.23029e-014 4.96962e-017
rhumerus -12.4054 21.4133 -89.5143
rradius 78.9493
rwrist 21.2718
rhand -22.8285 -17.5634
rfingers 7.12502
rthumb 3.6087 -47.5126
lclavicle 1.23029e-014 4.96962e-017
lhumerus -15.7107 -21.8083 100.448
lradius 55.2061
lwrist -6.95084
lhand -17.3409 24.2609
lfingers 7.12502
lthumb 8.90642 54.0529
rfemur -37.1893 -5.59883 18.8035
rtibia 22.6106
rfoot -3.29381 -18.277
rtoes 5.89943
lfemur -0.75236 -2.18311 -20.6665
ltibia 14.5309
lfoot -15.4128 2.13099
ltoes -7.47154
113
root 27.5879 17.4659 6.78006 18.4976 -85.3589 -9.00687
lowerback -0.33204 -0.686706 -0.975602
upperback -1.57223 -0.921328 0.893423
thorax -1.39385 -0.446672 1.46996
lowerneck -18.973 -2.97385 -6.02694
upperneck 16.1837 -3.59574 5.79718
head 8.37028 -1.48843 2.48398
rclavicle -4.77083e-015 -4.47266e-015
rhumerus -12.5118 21.4614 -89.3955
rradius 79.2433
rwrist 21.2736
rhand -22.5973 -17.4441
rfingers 7.12502
rthumb 3.832 -47.3893
lclavicle -4.77083e-015 -4.47266e-015
lhumerus -16.1966 -21.6604 100.632
lradius 55.2744
lwrist -7.06494
lhand -17.2922 24.2274
lfingers 7.12502
lthumb 8.95338 54.0174
rfemur -37.1612 -5.33949 18.762
rtibia 21.9878
rfoot -3.13555 -18.2967
rtoes 5.97536
lfemur -0.462256 -2.23394 -20.6017
ltibia 14.9522
lfoot -15.4358 2.04688
ltoes -8.39251
114
root 27.432 17.4584 6.77597 18.6654 -85.324 -9.17544
lowerback -0.327038 -0.703957 -0.922094
upperback -1.5671 -0.943611 0.960951
thorax -1.3904 -0.458205 1.50938
lowerneck -19.0191 -2.97572 -6.01545
upperneck 16.178 -3.58485 5.73417
head 8.37421 -1.48805 2.46182
rclavicle -3.42904e-015 1.23246e-014
rhumerus -12.6416 21.5097 -89.2822
rradius 79.5289
rwrist 21.2805
rhand -22.3725 -17.3308
rfingers 7.12502
rthumb 4.04905 -47.272
lclavicle -3.42904e-015 1.23246e-014
lhumerus -16.7197 -21.4848 100.821
lradius 55.3288
lwrist -7.18057
lhand -17.2454 24.195
lfingers 7.12502
lthumb 8.99856 53.9831
rfemur -37.1159 -5.07987 18.7388
rtibia 21.4625
rfoot -2.96922 -18.3142
rtoes 6.09904
lfemur -0.206319 -2.2844 -20.5165
ltibia 15.4331
lfoot -15.4133 1.94451
ltoes -9.34362
115
root 27.2745 17.4521 6.77118 18.9834 -85.2864 -9.49841
lowerback -0.3196 -0.720637 -0.856022
upperback -1.55873 -0.965068 1.03368
thorax -1.38513 -0.469494 1.5471
lowerneck -19.0736 -2.97734 -6.00223
upperneck 16.1758 -3.57309 5.66776
head 8.38065 -1.48737 2.43834
rclavicle 9.10682e-015 1.68967e-015
rhumerus -12.787 21.5584 -89.1726
rradius 79.805
rwrist 21.292
rhand -22.1551 -17.2259
rfingers 7.12502
rthumb 4.25901 -47.1631
lclavicle 9.10682e-015 1.68967e-015
lhumerus -17.2717 -21.2834 101.011
lradius 55.3689
lwrist -7.30167
lhand -17.2024 24.1673
lfingers 7.12502
lthumb 9.04005 53.9535
rfemur -37.0539 -4.8214 18.7374
rtibia 21.0324
rfoot -2.79696 -18.3303
rtoes 6.27112
lfemur 0.0124838 -2.33575 -20.409
ltibia 15.9746
lfoot -15.3379 1.82512
ltoes -10.3139
116
root 27.1155 17.4469 6.76571 19.4724 -85.2453 -9.99697
lowerback -0.309946 -0.736724 -0.776128
upperback -1.54947 -0.985689 1.11277
thorax -1.38032 -0.480533 1.58361
lowerneck -19.1238 -2.97805 -5.98877
upperneck 16.1734 -3.5599 5.59901
head 8.38614 -1.48634 2.41421
rclavicle 3.16813e-015 9.93923e-016
rhumerus -12.9553 21.6091 -89.0675
rradius 80.0728
rwrist 21.3065
rhand -21.9496 -17.1281
rfingers 7.12502
rthumb 4.45741 -47.0612
lclavicle 3.16813e-015 9.93923e-016
lhumerus -17.857 -21.0545 101.204
lradius 55.3962
lwrist -7.42858
lhand -17.165 24.1401
lfingers 7.12502
lthumb 9.0761 53.9248
rfemur -36.975 -4.56728 18.7629
rtibia 20.6946
rfoot -2.62078 -18.3377
rtoes 6.48243
lfemur 0.191657 -2.38763 -20.2766
ltibia 16.5794
lfoot -15.2049 1.68726
ltoes -11.2917
117
root 26.9551 17.4428 6.75964 20.1265 -85.1996 -10.6656
lowerback -0.298492 -0.752135 -0.681969
upperback -1.53839 -1.00537 1.19807
thorax -1.37481 -0.491289 1.6185
lowerneck -19.1696 -2.97874 -5.97385
upperneck 16.1696 -3.54653 5.52645
head 8.39027 -1.48562 2.38858
rclavicle -3.72721e-015 1.48095e-014
rhumerus -13.1449 21.6606 -88.967
rradius 80.3326
rwrist 21.3242
rhand -21.7559 -17.0393
rfingers 7.12502
rthumb 4.64452 -46.9684
lclavicle -3.72721e-015 1.48095e-014
lhumerus -18.4712 -20.8001 101.399
lradius 55.4108
lwrist -7.55963
lhand -17.1284 24.1224
lfingers 7.12502
lthumb 9.11144 53.9056
rfemur -36.8781 -4.32033 18.8166
rtibia 20.4464
rfoot -2.44462 -18.3336
rtoes 6.72826
lfemur 0.32953 -2.44033 -20.1199
ltibia 17.2482
lfoot -15.0094 1.53247
ltoes -12.2738
118
root 26.7932 17.44 6.75295 20.9652 -85.1495 -11.5232
lowerback -0.285253 -0.766073 -0.571271
upperback -1.52518 -1.02305 1.2893
thorax -1.36839 -0.501271 1.65019
lowerneck -19.2166 -2.97916 -5.95743
upperneck 16.1667 -3.53288 5.45231
head 8.39485 -1.48484 2.36221
rclavicle -7.41715e-015 -6.55989e-015
rhumerus -13.3541 21.7126 -88.8706
rradius 80.5844
rwrist 21.343
rhand -21.5726 -16.9589
rfingers 7.12502
rthumb 4.82151 -46.884
lclavicle -7.41715e-015 -6.55989e-015
lhumerus -19.1109 -20.5233 101.592
lradius 55.4145
lwrist -7.69224
lhand -17.0946 24.1057
lfingers 7.12502
lthumb 9.14407 53.8875
rfemur -36.7636 -4.08157 18.9024
rtibia 20.2829
rfoot -2.27083 -18.3141
rtoes 7.01297
lfemur 0.423126 -2.49253 -19.9364
ltibia 17.9827
lfoot -14.7466 1.36285
ltoes -13.2442
119
root 26.6301 17.4385 6.74571 21.9637 -85.0945 -12.5463
lowerback -0.26829 -0.778714 -0.445732
upperback -1.50953 -1.03899 1.38646
thorax -1.36176 -0.510581 1.67967
lowerneck -19.263 -2.97981 -5.93981
upperneck 16.1634 -3.51949 5.37619
head 8.39914 -1.48435 2.33493
rclavicle -3.45388e-015 2.78299e-015
rhumerus -13.5803 21.7651 -88.7777
rradius 80.827
rwrist 21.3622
rhand -21.3991 -16.8883
rfingers 7.12502
rthumb 4.98903 -46.8095
lclavicle -3.45388e-015 2.78299e-015
lhumerus -19.7739 -20.2245 101.784
lradius 55.409
lwrist -7.82525
lhand -17.0653 24.0957
lfingers 7.12502
lthumb 9.1723 53.8762
rfemur -36.6293 -3.85302 19.0193
rtibia 20.1999
rfoot -2.10536 -18.2787
rtoes 7.34054
lfemur 0.471532 -2.54401 -19.7285
ltibia 18.7834
lfoot -14.4116 1.17787
ltoes -14.1846
120
root 26.4658 17.4382 6.73782 23.1437 -85.0336 -13.7564
lowerback -0.247776 -0.789425 -0.304862
upperback -1.49203 -1.05233 1.49038
thorax -1.35549 -0.518805 1.70752
lowerneck -19.3085 -2.98136 -5.92111
upperneck 16.1608 -3.50731 5.29785
head 8.40358 -1.48464 2.30656
rclavicle -3.70236e-015 2.60408e-014
rhumerus -13.8281 21.8168 -88.6891
rradius 81.063
rwrist 21.3819
rhand -21.2395 -16.8271
rfingers 7.12502
rthumb 5.14313 -46.7447
lclavicle -3.70236e-015 2.60408e-014
lhumerus -20.4581 -19.9064 101.973
lradius 55.3953
lwrist -7.9581
lhand -17.0407 24.0917
lfingers 7.12502
lthumb 9.1961 53.8712
rfemur -36.4745 -3.63266 19.1705
rtibia 20.1896
rfoot -1.94727 -18.2283
rtoes 7.69427
lfemur 0.472068 -2.59291 -19.4923
ltibia 19.6509
lfoot -14.0088 0.972018
ltoes -15.0825
121
root 26.3003 17.4392 6.72936 24.4803 -84.965 -15.1279
lowerback -0.225485 -0.798365 -0.148576
upperback -1.47104 -1.06334 1.60032
thorax -1.3469 -0.526088 1.7329
lowerneck -19.3564 -2.98346 -5.90035
upperneck 16.1582 -3.49599 5.21779
head 8.40838 -1.48535 2.27715
rclavicle 1.59773e-014 -1.68967e-014
rhumerus -14.0927 21.8681 -88.6033
rradius 81.292
rwrist 21.3997
rhand -21.0908 -16.7754
rfingers 7.12502
rthumb 5.28669 -46.6894
lclavicle 1.59773e-014 -1.68967e-014
lhumerus -21.1575 -19.5727 102.156
lradius 55.3741
lwrist -8.08762
lhand -17.022 24.0858
lfingers 7.12502
lthumb 9.21413 53.8644
rfemur -36.2984 -3.4239 19.3556
rtibia 20.2458
rfoot -1.80002 -18.1612
rtoes 8.06965
lfemur 0.421903 -2.6412 -19.2298
ltibia 20.5864
lfoot -13.5416 0.749599
ltoes -15.9484
122
root 26.1337 17.4414 6.72038 25.9552 -84.8906 -16.6416
lowerback -0.203853 -0.804369 0.0209439
upperback -1.44808 -1.0705 1.71561
thorax -1.33621 -0.531659 1.75629
lowerneck -19.3981 -2.98665 -5.87882
upperneck 16.153 -3.4868 5.13833
head 8.4114 -1.4871 2.24755
rclavicle -2.31087e-015 6.75868e-015
rhumerus -14.3764 21.9174 -88.5214
rradius 81.5135
rwrist 21.4154
rhand -20.9541 -16.7337
rfingers 7.12502
rthumb 5.41869 -46.6445
lclavicle -2.31087e-015 6.75868e-015
lhumerus -21.8723 -19.2252 102.335
lradius 55.3455
lwrist -8.21625
lhand -17.0071 24.0831
lfingers 7.12502
lthumb 9.2285 53.8611
rfemur -36.1014 -3.22513 19.5728
rtibia 20.3624
rfoot -1.66633 -18.0767
rtoes 8.46324
lfemur 0.319618 -2.68407 -18.9423
ltibia 21.5883
lfoot -13.0086 0.515848
ltoes -16.7764
123
root 25.9664 17.445 6.71089 27.5167 -84.805 -18.2488
lowerback -0.173765 -0.809336 0.202185
upperback -1.42345 -1.07627 1.83567
thorax -1.32874 -0.536694 1.77813
lowerneck -19.4378 -2.99102 -5.85633
upperneck 16.1475 -3.4797 5.05912
head 8.41406 -1.48979 2.21762
rclavicle -2.85753e-015 -1.05356e-014
rhumerus -14.6793 21.9647 -88.4438
rradius 81.7278
rwrist 21.4279
rhand -20.8317 -16.706
rfingers 7.12502
rthumb 5.53683 -46.6137
lclavicle -2.85753e-015 -1.05356e-014
lhumerus -22.6008 -18.8639 102.506
lradius 55.3127
lwrist -8.34327
lhand -16.9992 24.0712
lfingers 7.12502
lthumb 9.23613 53.8489
rfemur -35.8772 -3.03907 19.8172
rtibia 20.5291
rfoot -1.55098 -17.9815
rtoes 8.87413
lfemur 0.164439 -2.72719 -18.6325
ltibia 22.6577
lfoot -12.4109 0.277177
ltoes -17.5643
124
root 25.7983 17.45 6.70093 29.1586 -84.711 -19.9415
lowerback -0.139439 -0.81194 0.394089
upperback -1.39711 -1.0789 1.95992
thorax -1.32213 -0.540334 1.79835
lowerneck -19.4746 -2.99684 -5.83354
upperneck 16.141 -3.47514 4.98123
head 8.41605 -1.4936 2.18776
rclavicle -4.72114e-016 -3.97569e-015
rhumerus -15.0014 22.0094 -88.3709
rradius 81.9355
rwrist 21.4365
rhand -20.7207 -16.6891
rfingers 7.12502
rthumb 5.64404 -46.5939
lclavicle -4.72114e-016 -3.97569e-015
lhumerus -23.338 -18.4936 102.669
lradius 55.2761
lwrist -8.46532
lhand -16.9939 24.0608
lfingers 7.12502
lthumb 9.24119 53.8383
rfemur -35.6274 -2.86452 20.0887
rtibia 20.7399
rfoot -1.4556 -17.8727
rtoes 9.29113
lfemur -0.0452521 -2.765 -18.3015
ltibia 23.7914
lfoot -11.7503 0.0354743
ltoes -18.298
